<svg xmlns="http://www.w3.org/2000/svg" xmlns:svg="http://www.w3.org/2000/svg" xmlns:xlink="http://www.w3.org/1999/xlink" id="Calque_1" x="0" y="0" version="1.1" viewBox="0 0 792 1135.9" xml:space="preserve" style="enable-background:new 0 0 792 1135.9"><metadata id="metadata484"/><style id="style2" type="text/css">.st0{fill:#0d0905}.st1{fill:#fca65b}.st2{fill:#eb9449}.st3{fill:#f29b50}.st4{fill:#d31616}.st5{fill:#ea1818}.st7{fill:#333}.st8{fill:#1c140a}.st9{fill:#261e14}.st10{fill:#3d4251}.st11{fill:#363a47}.st12{fill:#474b56}.st13{fill:#4189c6}.st14{fill:#3373aa}.st15{fill:#e1e1e1}.st16{clip-path:url(#SVGID_2_);fill:#e6e6e6}.st17{fill:#b2b1b1}.st18{fill:#ededed}.st19{fill:url(#SVGID_3_)}.st20{fill:url(#SVGID_4_)}.st21{fill:url(#SVGID_5_)}.st22{fill:url(#SVGID_6_)}.st23{fill:url(#SVGID_7_)}.st24{fill:url(#SVGID_8_)}.st25{fill:url(#SVGID_9_)}.st26{fill:url(#SVGID_10_)}</style><g id="g477"><g id="g6"><path id="path4" d="M417.8,361.5c-2,1.3-4,35-5.5,69.5c-1.5-34.6-3.5-68.2-5.5-69.5c-4.2-2.8-142.6,4.1-142.6,4.1v134.9 c0,0,56.9,6.5,148.1,5.8c91.2,0.7,148.1-5.8,148.1-5.8V365.7C560.4,365.7,422,358.8,417.8,361.5z" class="st0"/></g><g id="g10"><path id="path8" d="M603.3,547.2c-5.5-36.5-43.2-50.6-61.7-56.1s-49.1-7.6-68.5-18.6c-19.4-11.1-16.3-66.4-16.3-66.4H415h-41.9 c0,0,3.1,55.4-16.3,66.4c-19.4,11.1-50,13.1-68.5,18.6s-49.6,19.7-55.2,56.1c-4.4,29.2-17.6,113.7-17.6,113.7h199.4h199.4 C614.4,661,607.8,576.4,603.3,547.2z" class="st1"/></g><g id="g14"><path id="path12" d="M369.6,451.1L369.6,451.1c22.5-4.2,66-18.1,87.2-33.9c0-1.7,0-3.2,0-4.5v-0.1c0-0.6,0-1.1,0-1.7 c0-0.1,0-0.2,0-0.3c0-0.4,0-0.8,0.1-1.3c0-0.1,0-0.2,0-0.3c0-0.4,0-0.7,0-1c0-0.1,0-0.2,0-0.2c0-0.3,0-0.5,0-0.8v-0.1 c0-0.2,0-0.3,0-0.5s0-0.3,0-0.3h-41.8h-41.9C373.2,406,374.6,431.3,369.6,451.1z" class="st2"/></g><g id="g18"><path id="path16" d="M534.2,267.8c0,0,17.7-75.4-2.9-117.4c-22.2-45.2-55.4-71.1-116.3-71.1s-94.1,25.8-116.3,71.1 c-20.6,41.9-2.9,117.4-2.9,117.4c-27.7-5.5-22.5,24.7-13.9,38.4c7.2,11.4,7.3,12.6,11.7,25.1c6.2,18,20.5,5.6,20.5,5.6 c8.3,23.1,14.2,28.5,47.3,59.1c28.8,26.6,38.9,26.3,53.5,26.3s24.4,0.3,53.5-26.3c33.2-30.4,39-36,47.3-59.1 c0,0,14.3,12.5,20.5-5.6c4.3-12.5,4.5-13.7,11.6-25.1C556.7,292.5,561.9,262.2,534.2,267.8z" class="st3"/></g><path id="sleeve_9_" d="M225,519c0,0-6.4,249-25.4,299.8s71.8,9.2,71.8,9.2l17-36.3c0,0,7.9-45.5,7.8-58.4 C296.2,720.5,225,519,225,519z" class="st4"/><path id="sleeve_8_" d="M608.9,535.4c0,0,6.4,208.8,25.4,259.6s-81.9,25.4-81.9,25.4l-18.1-42c0,0,3.3-15.9,3.3-28.7 C537.8,736.9,608.9,535.4,608.9,535.4z" class="st4"/><g id="g24"><path id="path22" d="M220.6,575.1c-1.5-34.3-3.9-66.7,31.7-73.2c13.4-2.4,56.6-11.1,56.6-11.1l41-15.2c0,0,3.3,64,62.7,64 s60.6-67.1,60.6-67.1l58.1,22.8c29,2.3,29.2,4.1,42.5,6.6c32.7,6,37.9,29.2,36.9,62.6c-0.5,15.3-40.9,134.5-52,225.6 c-14.3,116.5,17.6,180.3,1.5,197c-21,21.7-145.4,20.6-145.4,20.6s-136.4-3.6-153.1-23.6c-17.1-20.6,13.6-122.8-2-225 C248.1,683.2,222,607.3,220.6,575.1z" class="st5"/></g><path id="mounth_2_" d="M387.8,353.7c-11.6-4,11,18.6,29.3,18s41.4-25.3,26.2-17.9c-5,2.4-12-14.1-21.2-8.9 c-6.6,3.7-3.4,5.4-9.4-0.2C404.6,339,396.1,356.5,387.8,353.7z" class="st5"/><path id="eyebrows_7_" d="M364.7,222.9c-12.5,0.7-30.6,11.6-33.8,20.8c-3.9,11.3,10.3-6.3,20.3-10.7 c8.5-7.9,24.8-4,34.5,2.2c9.6,6.1,11.6,15.2,11.6,7.2C394.7,234.6,374.8,222.9,364.7,222.9z" class="st8"/><path id="eyebrows_6_" d="M468.5,220.5c-12.5,0.7-30.6,11.6-33.8,20.8c-3.9,11.3,10.3-6.3,20.3-10.7 c8.5-7.9,24.8-4,34.5,2.2c9.6,6.1,11.6,15.2,11.6,7.2C498.5,232.2,478.6,220.5,468.5,220.5z" class="st8"/><path id="path33" d="M398.9,159.6c0,0,5.5,16.4,6.7,25.7c1.3,9.3,2.3,20.4,2.3,20.4s2.1-7-0.3-20.9 C405.2,170.9,398.9,159.6,398.9,159.6z" class="st9"/><path id="path35" d="M358.3,216.3c0,0-1.5-15.4,4.6-33.1s21.1-21.5,21.1-21.5s-10.7,5.9-17.3,21.8 C360,199.3,358.3,216.3,358.3,216.3z" class="st9"/><path id="path37" d="M450.5,202.9c0,0-0.7-13.8-8.5-28.5s-21.5-16.1-21.5-16.1s10.2,3.8,18.2,16.8S450.5,202.9,450.5,202.9z" class="st9"/><path id="sleeve_28_" d="M484.8,475.4c0,0,1.2,0.1,3.3,0.3c44,11.9,60.7,14.4,92,19.3c17.5-2.2,40.9,21.1,30.6,42.9 s-41.6,218.7-41.6,254.5s1.1,183.8,2.5,196.6s-91.6,32.4-104.7,18.7c-7.1-7.4,13.5-91.5,34.2-190.2c17.5-83,8.7-188.6,4.8-211.3 c-8.7-49.6-41.2-86.6-41.2-86.6" class="st10"/><path id="sleeve" d="M612.7,527.9c0,0,21.2,250.4,39.5,298.8c18.3,48.4-77.8,40.3-77.8,40.3l-16.8-98.2 c0,0-5.3-42.4-5.3-54.7C552.2,702,612.7,527.9,612.7,527.9z" class="st11"/><g id="g43"><path id="path41" d="M280.9,121.7c0.1-0.4-23.1,40,0.2-1.2c13.1-31.2,178.2-53.9,260.2,0c23.8,25.1,39.9,101.5,23.6,109.1 c-5.8,2.7-25.3-25.7-55.4-46.8c-8.4-5.9-33.2-23.6-98.1-23.6s-89.7,17.7-98.1,23.6c-30.1,21.1-43.4,52.1-49.3,49.3 C248.1,224.6,255.1,165.4,280.9,121.7z" class="st12"/></g><path id="sleeve_30_" d="M348.9,482.4c0,0-4.2-4.3-6.3-4.1c-44,11.9-57.7,18.8-89,23.7c-17.5-2.2-40.9,21.1-30.6,42.9 c10.3,21.8,41.6,218.7,41.6,254.5s-8.9,168.7-10.4,181.5s90.2,38.3,103.3,24.7c7.1-7.4,2.1-94-18.7-192.7 c-17.5-83-15.1-177-11.1-199.7c8.7-49.6,41.2-86.6,41.2-86.6" class="st10"/><path id="sleeve_29_" d="M221,534.9c0,0-33.4,200.8-40.4,283.7c-2.3,41.2,95.7,21.2,95.7,21.2l-2.7-54.3 c0,0,14.7-33.9,14.7-46.2C288.3,727,221,534.9,221,534.9z" class="st11"/><path id="glasses_11_" d="M404.3,268.8h25.1V279h-25.1V268.8z" class="st13"/><g id="g50"><path id="path48" d="M553.6,182.8C519.4,62.5,415.8,62.5,415.8,62.5s-103.6,0-137.9,120.2c-2.9,10.1-0.3,24.3-7.1,36.8 c-49.1,89.1,9.6,380.1,13.7,380.7c1.2-7.3,2.3-20.1,2.3-20.1l2.1,19.6c5.5,0.4,12.9,0.7,18.5,0.2l0.2-27.7l4.6,26.6 c5.2-0.7,17.2-2.1,22.1-3.1l-0.5-12.7l4.8,11.9c19-4.7-9.1-359.4-9.1-359.4s17.6-0.8,27.6-2l0,0l3.9-16l3.7,15.1 c4.4-0.4,9.1-0.9,13.8-1.4l7.5-38.7l5.3,37.4c7.8-0.6,19.9-1.4,24.6-1.4h0.1l3-22.2l4.7,22.4c10.5,0.5,25.2,1.9,38.3,3.3l3-37.5 l4.9,38.3c12.4,1.4,32.3,2.5,32.3,2.5S480.4,588,495.9,591l9.9-33.3l-4.5,34.3c6.8,1.2,14.2,2.2,21.8,2.8l6-20.5l2.1,20.9 c12.5,0.4,82.3-278.9,29.6-378.8C554.5,205.3,556.3,192.2,553.6,182.8z" class="st8"/></g><path id="glasses_10_" d="M396.9,236.7h-66.6c-4.5,0-8.2,3.7-8.2,8.2v51c0,4.5,3.7,8.2,8.2,8.2h66.6 c4.5,0,8.2-3.7,8.2-8.2v-51C405.1,240.4,401.5,236.7,396.9,236.7z M395.2,288.8c0,3.4-2.8,6.1-6.2,6.1h-50.4 c-3.4,0-6.2-2.7-6.2-6.1v-37.7c0-3.4,2.8-6.1,6.2-6.1H389c3.4,0,6.2,2.7,6.2,6.1V288.8z" class="st13"/><path id="glasses_9_" d="M500.9,236.7h-66.6c-4.5,0-8.2,3.7-8.2,8.2v51c0,4.5,3.7,8.2,8.2,8.2h66.6 c4.5,0,8.2-3.7,8.2-8.2v-51C509.1,240.4,505.5,236.7,500.9,236.7z M499.2,288.8c0,3.4-2.8,6.1-6.2,6.1h-50.4 c-3.4,0-6.2-2.7-6.2-6.1v-37.7c0-3.4,2.8-6.1,6.2-6.1H493c3.4,0,6.2,2.7,6.2,6.1V288.8z" class="st13"/><g id="g56"><path id="path54" d="M289.6,113.8c0.1-0.4,0.1-0.7,0.2-1.1c5.5-20.3,14.6-35.1,26.4-46.7c0.3-0.4,0.6-0.8,1-1.2 c16-17.4,21-19.7,27.7-30.6s15.4-20.8,34.7-20.1c10.2,0.4,10.6,3.2,28.4,2.6c19.9-0.6,30-2.9,36.3,0c10.7,4.9,8.3,8,38.7,29.6 c6.3,4.5,13,9.7,18.6,16.2c19.6,19,30.5,50.2,30.5,50.2c24.7,40.7,34.4,96.6,19.3,103.6c-5.4,2.5-20.9-26.2-48.9-45.8 c-7.8-5.5-30.9-21.9-91.4-21.9c-60.4,0-83.6,16.4-91.4,21.9c-28,19.6-38.1,48.2-43.6,45.6C261.3,209.2,265.4,154.4,289.6,113.8z" class="st10"/></g><g id="g62"><g id="g60"><path id="path58" d="M291.2,106.5c2.2-6.8,3.5-10.2,5.4-13.8c1-0.4,11.5-5.4,12.6-5.8c34.9-14.4,83.8-15.5,98-15.5 c2.2,0,3.6,0,4.3,0c0.6,0,2.1,0,4.2,0c13.9,0,61.7,0,109.3,24.3c2,4.3,4.3,9.3,4.3,9.3c1,2.2,1.4,3.4,2.2,5.4 c-3.1-8-22.5-14.2-33.1-18.6c-31.7-13.1-61.2-12.4-82.7-13.6c-2.4-0.1-3.8,0-3.9,0h-0.3H411c-0.1,0-1.5,0-3.9,0 c-13.1,0-58.3,1-89.9,14.1c-10.7,4.4-20.5,9.9-26.6,16.1" class="st12"/></g></g><g id="g66"><path id="path64" d="M471.8,470.6c15.8,23.9,13.3,52.2-6.3,64.5c-19.6,12.3-49.1,4.1-67.6-18.1L471.8,470.6z" class="st4"/></g><g id="g70"><path id="path68" d="M349.9,475.5c-12.3,30.7-8.8,60.9,8.7,68.7c17.5,7.9,42.4-9.5,57.2-39.1L349.9,475.5z" class="st4"/></g><g id="tie_12_"><path id="tie_14_" d="M427.7,529.6c0,0-88.1-49.1-95.1-17.5s-15.1,55.7,8.2,59.7 C364.1,575.8,427.7,529.6,427.7,529.6z" class="st14"/><path id="tie_13_" d="M412.5,522.2c24.8-13.4,73.9-36.4,79.9-13c8.2,31.5,17.1,55.3-6,60.2 c-16.2,3.5-53.2-17.3-73.8-29.9C412.3,524.2,412.7,537.3,412.5,522.2z" class="st13"/></g><g id="g457"><path id="path75" d="M229.2,671.5l236.2,204.9c5,4.3,12.6,3.8,16.9-1.2l120-138.2c4.3-5,3.8-12.6-1.2-16.9l-236.2-205 c-5-4.3-12.6-3.8-16.9,1.2L228,654.6C223.7,659.6,224.3,667.2,229.2,671.5z" class="st15"/><g id="g87"><g id="g85"><defs id="defs78"><rect id="SVGID_1_" width="368.4" height="119.1" x="218.1" y="566.3" transform="matrix(0.9975 -7.078110e-02 7.078110e-02 0.9975 -43.287 30.0417)"/></defs><clipPath id="SVGID_2_"><use style="overflow:visible" id="use80" xlink:href="#SVGID_1_"/></clipPath><path id="path83" d="M230.1,672.2l236.2,204.9c5,4.3,12.6,3.8,16.9-1.2l119.9-138.3c4.3-5,3.8-12.6-1.2-16.9L365.8,515.8 c-5-4.3-12.6-3.8-16.9,1.2l-120,138.3C224.6,660.3,225.2,667.9,230.1,672.2z" class="st16" clip-path="url(#SVGID_2_)"/></g></g><path id="path89" d="M462.9,875.1L230.3,673.4c-0.5-0.4-0.5-1.2-0.1-1.6l0.2-0.2c0.4-0.5,1.2-0.5,1.6-0.1l232.5,201.7 c0.5,0.4,0.5,1.2,0.1,1.6l-0.2,0.2C464.1,875.5,463.3,875.5,462.9,875.1z" class="st17"/><circle id="circle91" cx="415.2" cy="695.8" r="22.6" class="st18"/><g id="g455"><g id="g453"><linearGradient id="SVGID_3_" x1="-188.961" x2="-59.28" y1="1678.353" y2="1603.482" gradientTransform="matrix(0.7554 0.6553 0.6553 -0.7554 -576.0345 2048.7961)" gradientUnits="userSpaceOnUse"><stop style="stop-color:#a8aaaa" id="stop93" offset="0"/><stop style="stop-color:#a1a3a3" id="stop95" offset=".067"/><stop style="stop-color:#a8aaaa" id="stop97" offset=".088"/><stop style="stop-color:#bcbdbd" id="stop99" offset=".118"/><stop style="stop-color:#dcdcdc" id="stop101" offset=".153"/><stop style="stop-color:#f4f4f4" id="stop103" offset=".177"/><stop style="stop-color:#eff0f0" id="stop105" offset=".178"/><stop style="stop-color:#d7d7d7" id="stop107" offset=".191"/><stop style="stop-color:#c3c4c4" id="stop109" offset=".204"/><stop style="stop-color:#b5b6b6" id="stop111" offset=".22"/><stop style="stop-color:#adaeae" id="stop113" offset=".24"/><stop style="stop-color:#abacac" id="stop115" offset=".276"/><stop style="stop-color:#9a9b9b" id="stop117" offset=".296"/><stop style="stop-color:#8f9090" id="stop119" offset=".32"/><stop style="stop-color:#888989" id="stop121" offset=".355"/><stop style="stop-color:#868787" id="stop123" offset=".45"/><stop style="stop-color:#8e8f8f" id="stop125" offset=".488"/><stop style="stop-color:#9d9f9f" id="stop127" offset=".592"/><stop style="stop-color:#a6a8a8" id="stop129" offset=".711"/><stop style="stop-color:#a9abab" id="stop131" offset=".873"/><stop style="stop-color:#dcdcdc" id="stop133" offset=".963"/></linearGradient><path id="path136" d="M374,673.3c0.7-0.8,1.5-1.4,2.5-2c1-0.5,2.1-0.9,3.2-1.2c1.2-0.2,2.4-0.3,3.6-0.2c1.3,0.1,2.5,0.4,3.7,0.9 c-0.1-0.8-0.2-1.6-0.3-2.4c0-0.8,0-1.6,0.1-2.3s0.2-1.4,0.4-2c0.2-0.6,0.5-1.2,0.9-1.6c0.5-0.6,1.1-1.1,1.6-1.5 c0.6-0.4,1.2-0.7,1.8-1c0.6-0.3,1.2-0.4,1.9-0.5c0.6-0.1,1.2-0.1,1.8-0.1c0.6,0.1,1.1,0.2,1.6,0.4s1,0.5,1.3,0.8 c0.5,0.4,0.9,1,1.1,1.7s0.3,1.5,0.2,2.4c-0.1,0.9-0.5,1.9-1,3c-0.6,1.1-1.4,2.3-2.5,3.6c-0.8,0.9-1.6,1.8-2.4,2.6 s-1.6,1.5-2.4,2.2c0.2,0.5,0.3,1,0.5,1.6c0.2,0.5,0.4,1,0.5,1.6c0,0.1,0.1,0.2,0.1,0.4c0.1,0.2,0.1,0.3,0.2,0.5 c0,0.2,0.1,0.3,0.1,0.4c0,0.1,0,0.2-0.1,0.3c0,0.1-0.1,0.1-0.2,0.1s-0.2,0-0.3,0c-0.1,0-0.2,0-0.3,0c-0.1,0-0.2,0-0.2-0.1 c-0.1,0-0.3-0.1-0.4-0.3c-0.3-0.3-0.6-0.7-1-1.2c-0.3-0.5-0.7-1.1-1-1.7c-1.2,0.8-2.3,1.5-3.4,2.1s-2.2,1-3.2,1.4 c-1,0.3-2,0.6-2.9,0.7c-0.9,0.1-1.8,0.1-2.5,0.1c-0.8-0.1-1.5-0.2-2.1-0.5c-0.6-0.2-1.1-0.5-1.6-0.9s-0.8-0.8-1-1.4 c-0.2-0.5-0.3-1.1-0.3-1.7c0-0.6,0.2-1.3,0.5-1.9C372.9,674.7,373.3,674,374,673.3z M375.7,675.8c-0.5,0.6-0.8,1.1-0.8,1.6 s0.1,0.9,0.5,1.2s0.9,0.5,1.7,0.6c0.8,0.1,1.7,0,2.8-0.3c1.1-0.3,2.3-0.8,3.7-1.5c1.4-0.7,2.8-1.6,4.4-2.9l-0.1-0.5 c-0.7-0.4-1.4-0.7-2.2-0.9c-0.8-0.2-1.6-0.3-2.3-0.3c-0.8,0-1.6,0.1-2.3,0.2c-0.8,0.1-1.5,0.3-2.2,0.6c-0.7,0.2-1.3,0.5-1.8,0.9 C376.4,675,376,675.4,375.7,675.8z M390.8,663.9c-0.4,0.5-0.7,1-0.9,1.6c-0.2,0.6-0.3,1.3-0.3,2.1s0,1.6,0.1,2.4 c0.1,0.9,0.3,1.8,0.5,2.7c0.8-0.7,1.6-1.5,2.4-2.3s1.7-1.7,2.5-2.7c0.6-0.7,1-1.3,1.4-1.8c0.3-0.5,0.5-1,0.6-1.4s0.1-0.8,0-1.1 s-0.2-0.5-0.5-0.7c-0.2-0.2-0.5-0.3-0.8-0.4c-0.3-0.1-0.6-0.1-1-0.1s-0.7,0-1.1,0.1s-0.8,0.2-1.1,0.4c-0.4,0.2-0.7,0.3-1.1,0.6 C391.3,663.3,391,663.6,390.8,663.9z" class="st19"/><linearGradient id="SVGID_4_" x1="-192.184" x2="-26.456" y1="1696.281" y2="1600.598" gradientTransform="matrix(0.7554 0.6553 0.6553 -0.7554 -576.0345 2048.7961)" gradientUnits="userSpaceOnUse"><stop style="stop-color:#a8aaaa" id="stop138" offset="0"/><stop style="stop-color:#a1a3a3" id="stop140" offset=".067"/><stop style="stop-color:#a8aaaa" id="stop142" offset=".088"/><stop style="stop-color:#bcbdbd" id="stop144" offset=".118"/><stop style="stop-color:#dcdcdc" id="stop146" offset=".153"/><stop style="stop-color:#f4f4f4" id="stop148" offset=".177"/><stop style="stop-color:#eff0f0" id="stop150" offset=".178"/><stop style="stop-color:#d7d7d7" id="stop152" offset=".191"/><stop style="stop-color:#c3c4c4" id="stop154" offset=".204"/><stop style="stop-color:#b5b6b6" id="stop156" offset=".22"/><stop style="stop-color:#adaeae" id="stop158" offset=".24"/><stop style="stop-color:#abacac" id="stop160" offset=".276"/><stop style="stop-color:#9a9b9b" id="stop162" offset=".296"/><stop style="stop-color:#8f9090" id="stop164" offset=".32"/><stop style="stop-color:#888989" id="stop166" offset=".355"/><stop style="stop-color:#868787" id="stop168" offset=".45"/><stop style="stop-color:#8e8f8f" id="stop170" offset=".488"/><stop style="stop-color:#9d9f9f" id="stop172" offset=".592"/><stop style="stop-color:#a6a8a8" id="stop174" offset=".711"/><stop style="stop-color:#a9abab" id="stop176" offset=".873"/><stop style="stop-color:#dcdcdc" id="stop178" offset=".963"/></linearGradient><path id="path181" d="M408.7,688.3c-0.8,0.5-1.5,1-2.2,1.6c-0.6,0.5-1.2,1-1.6,1.4c-0.3,0.4-0.5,0.8-0.5,1.1 c0,0.4,0.1,0.7,0.5,1c0.1,0.1,0.4,0.2,0.6,0.3c0.3,0.1,0.6,0.2,1,0.2s0.9,0.1,1.5,0.1s1.2,0,1.9-0.1c0,0,0,0.2-0.1,0.3 c0,0.1-0.1,0.4-0.2,0.7s-0.3,0.7-0.4,1.2c-0.8,0.1-1.6,0.1-2.3,0.1c-0.7,0-1.4-0.1-2-0.2s-1.2-0.3-1.6-0.5 c-0.5-0.2-0.9-0.4-1.2-0.7c-0.4-0.3-0.6-0.7-0.8-1.1c-0.2-0.4-0.3-0.8-0.3-1.3s0.1-0.9,0.3-1.4c0.2-0.5,0.5-1,0.9-1.5 c0.1-0.2,0.3-0.4,0.6-0.6c0.3-0.2,0.6-0.5,0.9-0.7c0.3-0.3,0.7-0.5,1.2-0.8c0.4-0.3,0.9-0.6,1.4-0.9c-0.8-0.6-1.6-1.1-2.4-1.7 c-0.8-0.5-1.5-1.1-2.3-1.6c-0.6,0.3-1.1,0.7-1.7,1s-1.1,0.6-1.6,0.9c-0.5,0.3-0.9,0.5-1.4,0.8c-0.4,0.2-0.8,0.4-1.1,0.6 c-0.8,0.4-1.5,0.6-1.9,0.6c-0.5,0-0.8-0.1-1-0.2c-0.1-0.1-0.3-0.3-0.3-0.4c-0.1-0.2-0.2-0.3-0.2-0.5s0-0.3,0-0.5 s0.1-0.3,0.3-0.5c0.1-0.1,0.2-0.2,0.3-0.2c1-0.7,2-1.3,3-1.9s2-1.1,2.9-1.6c-0.3-0.3-0.6-0.6-0.8-0.9c-0.2-0.3-0.4-0.6-0.6-0.9 c-0.1-0.3-0.2-0.7-0.2-1.1c0-0.4,0.1-0.8,0.2-1.2c0.1-0.1,0.1-0.2,0.2-0.3s0.1-0.2,0.2-0.3c0.2-0.3,0.4-0.3,0.6-0.1 c0.1,0.1,0.2,0.3,0.2,0.5s0,0.6,0,1c0.3,0.2,0.6,0.4,0.8,0.7c0.3,0.2,0.6,0.5,0.9,0.7l0.8,0.7c0.7-0.4,1.3-0.7,1.9-1 s1.2-0.7,1.8-1c0.4-0.2,0.7-0.5,1-0.7c0.3-0.3,0.6-0.5,0.8-0.8c0.2-0.2,0.4-0.4,0.5-0.7c0.1-0.2,0.2-0.4,0.2-0.7 c0-0.2,0-0.4-0.1-0.6c-0.1-0.2-0.2-0.4-0.4-0.6c-0.2-0.1-0.4-0.3-0.7-0.4c-0.3-0.1-0.6-0.3-1-0.4c-0.4-0.1-0.8-0.2-1.3-0.3 s-1.1-0.1-1.7-0.1c-0.2,0-0.4,0-0.6-0.1s-0.3-0.1-0.4-0.2c0,0,0-0.1,0.1-0.3s0.3-0.4,0.5-0.6c0.3-0.3,0.6-0.5,0.9-0.7 c0.4-0.1,0.8-0.2,1.2-0.3c0.4,0,0.9,0,1.3,0.1c0.5,0.1,0.9,0.2,1.4,0.3c0.4,0.2,0.8,0.3,1.2,0.5c0.4,0.2,0.7,0.4,1,0.7 c0.4,0.3,0.7,0.7,1,1.2c0.3,0.4,0.4,0.9,0.5,1.4s0,1-0.2,1.5s-0.5,1.1-1,1.6c-0.2,0.3-0.5,0.5-0.9,0.9c-0.4,0.3-0.8,0.7-1.3,1 c-0.5,0.4-1,0.7-1.6,1.1s-1.2,0.8-1.8,1.1c0.6,0.5,1.3,1,2.1,1.6c0.8,0.6,1.5,1.2,2.3,1.8c1.1-0.7,2.3-1.4,3.5-2.1 c1.2-0.7,2.5-1.4,3.7-2c0.4-0.2,0.8-0.3,1.2-0.3c0.4,0,0.7,0.1,1,0.4c0.1,0.1,0.2,0.2,0.3,0.4c0.1,0.1,0.1,0.3,0.2,0.4 c0,0.1,0,0.3,0,0.4c0,0.2-0.1,0.3-0.3,0.5c-0.1,0.1-0.3,0.3-0.4,0.4c-0.2,0.2-0.4,0.3-0.6,0.4c-0.4,0.2-0.9,0.5-1.4,0.8 s-1,0.6-1.5,0.9c-0.5,0.3-1.1,0.6-1.6,0.9c-0.5,0.3-1.1,0.6-1.6,1c0.4,0.3,0.7,0.5,1,0.8c0.3,0.2,0.5,0.4,0.6,0.5 c0.1,0,0.1,0.1,0.2,0.1s0.1,0.1,0.2,0.1c0.2,0.1,0.3,0.3,0.4,0.4c0.1,0.1,0.1,0.2,0.1,0.4s0,0.2-0.1,0.3s-0.1,0.2-0.2,0.3 s-0.2,0.2-0.3,0.2c-0.1,0-0.2,0-0.4,0c-0.1,0-0.2-0.1-0.3-0.1c-0.1-0.1-0.2-0.1-0.3-0.2c-0.2-0.1-0.3-0.2-0.4-0.3 s-0.1-0.1-0.2-0.1h-0.1c0,0,0,0-0.1,0c0,0-0.1-0.1-0.2-0.1c-0.1-0.1-0.2-0.2-0.4-0.3c-0.2-0.2-0.4-0.3-0.7-0.5 C409.1,688.6,408.9,688.4,408.7,688.3z" class="st20"/><linearGradient id="SVGID_5_" x1="-180.357" x2="-42.26" y1="1695.867" y2="1616.137" gradientTransform="matrix(0.7554 0.6553 0.6553 -0.7554 -576.0345 2048.7961)" gradientUnits="userSpaceOnUse"><stop style="stop-color:#a8aaaa" id="stop183" offset="0"/><stop style="stop-color:#a1a3a3" id="stop185" offset=".067"/><stop style="stop-color:#a8aaaa" id="stop187" offset=".088"/><stop style="stop-color:#bcbdbd" id="stop189" offset=".118"/><stop style="stop-color:#dcdcdc" id="stop191" offset=".153"/><stop style="stop-color:#f4f4f4" id="stop193" offset=".177"/><stop style="stop-color:#eff0f0" id="stop195" offset=".178"/><stop style="stop-color:#d7d7d7" id="stop197" offset=".191"/><stop style="stop-color:#c3c4c4" id="stop199" offset=".204"/><stop style="stop-color:#b5b6b6" id="stop201" offset=".22"/><stop style="stop-color:#adaeae" id="stop203" offset=".24"/><stop style="stop-color:#abacac" id="stop205" offset=".276"/><stop style="stop-color:#9a9b9b" id="stop207" offset=".296"/><stop style="stop-color:#8f9090" id="stop209" offset=".32"/><stop style="stop-color:#888989" id="stop211" offset=".355"/><stop style="stop-color:#868787" id="stop213" offset=".45"/><stop style="stop-color:#8e8f8f" id="stop215" offset=".488"/><stop style="stop-color:#9d9f9f" id="stop217" offset=".592"/><stop style="stop-color:#a6a8a8" id="stop219" offset=".711"/><stop style="stop-color:#a9abab" id="stop221" offset=".873"/><stop style="stop-color:#dcdcdc" id="stop223" offset=".963"/></linearGradient><path id="path226" d="M413.7,700.7c-0.4,0-0.8,0-1.3-0.1s-1-0.1-1.5-0.3c-0.5-0.1-1-0.3-1.5-0.5s-0.9-0.4-1.2-0.7 c-0.3-0.3-0.5-0.5-0.6-0.8s-0.2-0.5-0.2-0.8s0.1-0.5,0.2-0.8s0.3-0.5,0.5-0.8c0.3-0.4,0.7-0.7,1.2-1.1c0.5-0.4,1-0.8,1.6-1.2 s1.1-0.8,1.7-1.2s1.1-0.8,1.6-1.1c0.2-0.1,0.4-0.2,0.6-0.2s0.4,0,0.6,0.1s0.4,0.2,0.6,0.3s0.4,0.2,0.5,0.3 c0.2,0.2,0.4,0.4,0.4,0.6c0,0.2-0.1,0.3-0.2,0.5c-0.1,0.1-0.3,0.3-0.6,0.5c-0.3,0.2-0.6,0.4-0.9,0.6c-0.3,0.2-0.7,0.5-1.1,0.7 c-0.4,0.3-0.8,0.5-1.2,0.8c-0.4,0.3-0.7,0.5-1.1,0.8c-0.3,0.3-0.6,0.6-0.9,0.8c-0.2,0.3-0.4,0.5-0.4,0.7c-0.1,0.2,0,0.4,0.2,0.5 c0.2,0.2,0.5,0.3,0.9,0.4c0.4,0.1,0.8,0.1,1.2,0.1c0.4,0,0.9,0,1.3,0s0.8,0,1.1,0L413.7,700.7z M417.5,688.6 c0.1-0.1,0.3-0.3,0.5-0.4c0.2-0.1,0.4-0.2,0.7-0.2c0.3,0,0.5,0,0.8,0.1s0.6,0.3,0.9,0.5c0.2,0.2,0.4,0.4,0.5,0.6 c0.1,0.2,0.2,0.4,0.3,0.6c0,0.2,0,0.4,0,0.6c-0.1,0.2-0.2,0.4-0.4,0.6c-0.2,0.2-0.4,0.4-0.6,0.5s-0.5,0.2-0.7,0.2 c-0.3,0-0.5,0-0.8-0.1s-0.6-0.3-0.9-0.5c-0.5-0.4-0.8-0.9-0.8-1.3C417,689.4,417.1,688.9,417.5,688.6z" class="st21"/><linearGradient id="SVGID_6_" x1="-163.593" x2="-66.744" y1="1682.644" y2="1626.728" gradientTransform="matrix(0.7554 0.6553 0.6553 -0.7554 -576.0345 2048.7961)" gradientUnits="userSpaceOnUse"><stop style="stop-color:#a8aaaa" id="stop228" offset="0"/><stop style="stop-color:#a1a3a3" id="stop230" offset=".067"/><stop style="stop-color:#a8aaaa" id="stop232" offset=".088"/><stop style="stop-color:#bcbdbd" id="stop234" offset=".118"/><stop style="stop-color:#dcdcdc" id="stop236" offset=".153"/><stop style="stop-color:#f4f4f4" id="stop238" offset=".177"/><stop style="stop-color:#eff0f0" id="stop240" offset=".178"/><stop style="stop-color:#d7d7d7" id="stop242" offset=".191"/><stop style="stop-color:#c3c4c4" id="stop244" offset=".204"/><stop style="stop-color:#b5b6b6" id="stop246" offset=".22"/><stop style="stop-color:#adaeae" id="stop248" offset=".24"/><stop style="stop-color:#abacac" id="stop250" offset=".276"/><stop style="stop-color:#9a9b9b" id="stop252" offset=".296"/><stop style="stop-color:#8f9090" id="stop254" offset=".32"/><stop style="stop-color:#888989" id="stop256" offset=".355"/><stop style="stop-color:#868787" id="stop258" offset=".45"/><stop style="stop-color:#8e8f8f" id="stop260" offset=".488"/><stop style="stop-color:#9d9f9f" id="stop262" offset=".592"/><stop style="stop-color:#a6a8a8" id="stop264" offset=".711"/><stop style="stop-color:#a9abab" id="stop266" offset=".873"/><stop style="stop-color:#dcdcdc" id="stop268" offset=".963"/></linearGradient><path id="path271" d="M416.3,703.5c0.6,0.5,1.2,0.9,1.7,1.2c0.6,0.3,1.1,0.5,1.7,0.7c0.6,0.1,1.1,0.2,1.6,0.2s1.1,0,1.6-0.1 l-1.6,2c-0.4,0.1-0.8,0.1-1.2,0.1c-0.4,0-0.9-0.1-1.3-0.2c-0.4-0.1-0.9-0.3-1.3-0.5s-0.8-0.4-1.1-0.7l-0.1-0.1 c-0.1-0.1-0.1-0.2-0.3-0.3c-0.1-0.2-0.3-0.4-0.5-0.7s-0.6-0.7-1-1.2l-0.1,0.2c-0.9,1-1.8,1.9-2.7,2.6c-0.9,0.7-1.8,1.2-2.6,1.6 s-1.5,0.5-2.2,0.5s-1.2-0.2-1.6-0.5c-0.3-0.3-0.5-0.6-0.6-0.9c-0.1-0.3-0.1-0.7,0-1.1c0.1-0.4,0.3-0.8,0.6-1.2 c0.3-0.4,0.6-0.8,0.9-1.2c0.2-0.2,0.5-0.5,0.8-0.7s0.7-0.5,1.1-0.7s0.8-0.4,1.3-0.6c0.4-0.2,0.9-0.4,1.3-0.6 c1-0.4,2.1-0.8,3.3-1.1c0.4-0.4,0.9-0.8,1.4-1.2s0.9-0.8,1.4-1.1c0.5-0.4,1-0.7,1.5-0.9c0.5-0.3,1-0.4,1.5-0.5s1-0.1,1.5,0 s1,0.4,1.4,0.8c0.3,0.3,0.6,0.6,0.9,1c0.2,0.4,0.4,0.7,0.4,1.2c0,0.4,0,0.8-0.2,1.3c-0.2,0.4-0.4,0.9-0.9,1.4 c-0.3,0.4-0.7,0.7-1.1,1s-0.9,0.5-1.4,0.6s-1.1,0.2-1.7,0.1c-0.6,0-1.3-0.2-2-0.4L416.3,703.5z M407.6,705.3 c0,0-0.1,0.1-0.2,0.2c-0.1,0.1-0.1,0.3-0.2,0.4c0,0.1-0.1,0.3-0.1,0.4c0,0.1,0.1,0.3,0.2,0.4c0.1,0.1,0.2,0.1,0.4,0 c0.2-0.1,0.3-0.1,0.5-0.3c0.2-0.1,0.4-0.3,0.6-0.5s0.4-0.4,0.6-0.6c0.2-0.2,0.4-0.4,0.6-0.7s0.4-0.4,0.5-0.6 c0.3-0.3,0.5-0.5,0.7-0.8c0.2-0.2,0.4-0.4,0.5-0.5c0.1-0.2,0.3-0.3,0.4-0.4c-0.3,0.1-0.6,0.2-0.9,0.4s-0.6,0.3-1,0.5 c-0.3,0.2-0.6,0.4-0.9,0.6c-0.3,0.2-0.6,0.4-0.8,0.6c-0.3,0.2-0.5,0.3-0.6,0.5C407.8,705.1,407.7,705.2,407.6,705.3z M416,701.7 c0.5,0.1,1,0.2,1.4,0.2s0.8,0,1.2-0.1c0.4-0.1,0.8-0.2,1.1-0.4c0.3-0.2,0.7-0.3,1-0.6c0.1-0.1,0.3-0.2,0.4-0.4 c0.2-0.2,0.3-0.3,0.4-0.5s0.1-0.4,0.1-0.6c0-0.2-0.1-0.4-0.3-0.5c-0.2-0.2-0.4-0.3-0.7-0.3c-0.3,0-0.5,0-0.8,0.1 s-0.6,0.3-0.9,0.5s-0.6,0.4-1,0.7c-0.3,0.3-0.6,0.6-1,0.9C416.6,701,416.2,701.4,416,701.7z" class="st22"/><linearGradient id="SVGID_7_" x1="-173.044" x2="-37.096" y1="1698.954" y2="1620.465" gradientTransform="matrix(0.7554 0.6553 0.6553 -0.7554 -576.0345 2048.7961)" gradientUnits="userSpaceOnUse"><stop style="stop-color:#a8aaaa" id="stop273" offset="0"/><stop style="stop-color:#a1a3a3" id="stop275" offset=".067"/><stop style="stop-color:#a8aaaa" id="stop277" offset=".088"/><stop style="stop-color:#bcbdbd" id="stop279" offset=".118"/><stop style="stop-color:#dcdcdc" id="stop281" offset=".153"/><stop style="stop-color:#f4f4f4" id="stop283" offset=".177"/><stop style="stop-color:#eff0f0" id="stop285" offset=".178"/><stop style="stop-color:#d7d7d7" id="stop287" offset=".191"/><stop style="stop-color:#c3c4c4" id="stop289" offset=".204"/><stop style="stop-color:#b5b6b6" id="stop291" offset=".22"/><stop style="stop-color:#adaeae" id="stop293" offset=".24"/><stop style="stop-color:#abacac" id="stop295" offset=".276"/><stop style="stop-color:#9a9b9b" id="stop297" offset=".296"/><stop style="stop-color:#8f9090" id="stop299" offset=".32"/><stop style="stop-color:#888989" id="stop301" offset=".355"/><stop style="stop-color:#868787" id="stop303" offset=".45"/><stop style="stop-color:#8e8f8f" id="stop305" offset=".488"/><stop style="stop-color:#9d9f9f" id="stop307" offset=".592"/><stop style="stop-color:#a6a8a8" id="stop309" offset=".711"/><stop style="stop-color:#a9abab" id="stop311" offset=".873"/><stop style="stop-color:#dcdcdc" id="stop313" offset=".963"/></linearGradient><path id="path316" d="M421.4,704.8c0.6,0,1,0,1.4,0s0.7,0,0.9-0.1c0.3,0,0.5-0.1,0.8-0.1c0.3-0.1,0.5-0.1,0.9-0.2 c0.3-0.1,0.8-0.2,1.3-0.3s1.1-0.2,1.9-0.4c0.2,0,0.3-0.1,0.5-0.1s0.4,0,0.5,0c0.2,0,0.4,0.1,0.5,0.1c0.2,0.1,0.3,0.2,0.5,0.3 c0.3,0.2,0.5,0.5,0.6,0.6c0.1,0.2,0.1,0.4,0.1,0.5s0,0.3-0.1,0.4s-0.1,0.2-0.2,0.3s-0.3,0.2-0.6,0.3c-0.3,0.1-0.5,0.1-0.8,0.2 c-0.3,0-0.5,0.1-0.7,0.1s-0.4,0.1-0.5,0.1c-0.2,0.2-0.3,0.3-0.4,0.5s-0.2,0.3-0.3,0.5s-0.2,0.4-0.3,0.6 c-0.1,0.2-0.2,0.4-0.3,0.7c-0.1,0.2-0.3,0.5-0.5,0.8s-0.5,0.6-0.8,1c0.3,0,0.7,0.1,1,0.2c0.3,0.1,0.7,0.2,1,0.3 c0.4,0.1,0.7,0.2,1.1,0.3s0.8,0.2,1.3,0.2l-1.7,1.9c-0.6,0-1.2-0.1-1.9-0.3c-0.7-0.2-1.3-0.4-2-0.6c-0.7-0.3-1.3-0.6-1.9-0.9 c-0.6-0.3-1.2-0.7-1.6-1.1c-0.3-0.3-0.6-0.6-0.9-0.9c-0.2-0.3-0.4-0.6-0.5-1c-0.1-0.3-0.1-0.7-0.1-1c0.1-0.3,0.2-0.7,0.4-1 c-0.1-0.1-0.2-0.1-0.3-0.2c-0.1-0.1-0.2-0.1-0.2-0.2c-0.1-0.1-0.2-0.2-0.2-0.2c-0.1-0.1-0.1-0.2-0.1-0.2c0-0.1,0-0.2,0-0.3 s0.1-0.2,0.3-0.4c0.1-0.1,0.3-0.2,0.4-0.3c0.2-0.1,0.3-0.1,0.5-0.1s0.3,0,0.5,0C421.2,704.8,421.3,704.8,421.4,704.8z M421.5,706.9c0.1,0.1,0.1,0.2,0.1,0.3c0,0.2,0,0.3,0,0.5s0.1,0.4,0.1,0.6c0.1,0.2,0.2,0.4,0.4,0.6c0.2,0.2,0.4,0.3,0.6,0.4 c0.2,0.1,0.4,0.1,0.6,0c0.2,0,0.4-0.1,0.6-0.3c0.2-0.1,0.3-0.3,0.5-0.5c0.1-0.2,0.3-0.3,0.4-0.5s0.2-0.4,0.3-0.5 c0.1-0.2,0.2-0.3,0.3-0.5c0.1-0.2,0.1-0.3,0.2-0.4L421.5,706.9z" class="st23"/><linearGradient id="SVGID_8_" x1="-192.134" x2="-12.717" y1="1720.593" y2="1617.007" gradientTransform="matrix(0.7554 0.6553 0.6553 -0.7554 -576.0345 2048.7961)" gradientUnits="userSpaceOnUse"><stop style="stop-color:#a8aaaa" id="stop318" offset="0"/><stop style="stop-color:#a1a3a3" id="stop320" offset=".067"/><stop style="stop-color:#a8aaaa" id="stop322" offset=".088"/><stop style="stop-color:#bcbdbd" id="stop324" offset=".118"/><stop style="stop-color:#dcdcdc" id="stop326" offset=".153"/><stop style="stop-color:#f4f4f4" id="stop328" offset=".177"/><stop style="stop-color:#eff0f0" id="stop330" offset=".178"/><stop style="stop-color:#d7d7d7" id="stop332" offset=".191"/><stop style="stop-color:#c3c4c4" id="stop334" offset=".204"/><stop style="stop-color:#b5b6b6" id="stop336" offset=".22"/><stop style="stop-color:#adaeae" id="stop338" offset=".24"/><stop style="stop-color:#abacac" id="stop340" offset=".276"/><stop style="stop-color:#9a9b9b" id="stop342" offset=".296"/><stop style="stop-color:#8f9090" id="stop344" offset=".32"/><stop style="stop-color:#888989" id="stop346" offset=".355"/><stop style="stop-color:#868787" id="stop348" offset=".45"/><stop style="stop-color:#8e8f8f" id="stop350" offset=".488"/><stop style="stop-color:#9d9f9f" id="stop352" offset=".592"/><stop style="stop-color:#a6a8a8" id="stop354" offset=".711"/><stop style="stop-color:#a9abab" id="stop356" offset=".873"/><stop style="stop-color:#dcdcdc" id="stop358" offset=".963"/></linearGradient><path id="path361" d="M435,719c-0.8-0.2-1.6-0.3-2.2-0.4c-0.6-0.1-1.2-0.3-1.7-0.4c-0.5-0.1-0.9-0.3-1.2-0.4 c-0.3-0.1-0.6-0.3-0.8-0.5c-0.4-0.4-0.7-0.8-0.8-1.4c-0.1-0.6-0.1-1.2,0.2-1.9c0.2-0.7,0.6-1.4,1.1-2.2s1.1-1.6,1.9-2.5 c0.3-0.3,0.6-0.7,1-1.1c0.4-0.4,0.7-0.7,1.1-1.1c-0.2-0.2-0.3-0.3-0.3-0.4c-0.1-0.1-0.2-0.2-0.2-0.3c-0.1-0.1-0.2-0.2-0.3-0.4 s-0.4-0.4-0.6-0.7c-0.1-0.1-0.2-0.3-0.2-0.4c0-0.1,0-0.2,0-0.3s0.1-0.2,0.1-0.3c0.1-0.1,0.1-0.1,0.2-0.2 c0.1-0.1,0.2-0.2,0.4-0.1c0.2,0,0.3,0.1,0.5,0.2c0.2,0.1,0.4,0.3,0.6,0.5s0.4,0.4,0.6,0.5c0.2,0.2,0.4,0.3,0.5,0.5 c0.1,0.1,0.3,0.2,0.3,0.3c0.8-0.6,1.7-1.2,2.5-1.7c0.9-0.5,1.7-0.9,2.5-1.2s1.5-0.5,2.1-0.5s1.2,0.1,1.5,0.4 c0.2,0.2,0.4,0.5,0.5,0.8s0.1,0.6,0,1s-0.2,0.7-0.4,1.1c-0.2,0.4-0.4,0.7-0.7,1.1c-0.2,0.3-0.5,0.5-0.9,0.8s-0.7,0.5-1.2,0.7 c-0.4,0.2-0.9,0.4-1.3,0.6c-0.5,0.2-1,0.3-1.4,0.5c0,0.1,0.1,0.1,0.2,0.2c0.1,0.1,0.3,0.2,0.4,0.4c0.2,0.1,0.3,0.3,0.5,0.5 s0.3,0.3,0.5,0.5s0.3,0.3,0.5,0.4c0.1,0.1,0.3,0.2,0.4,0.3s0.1,0.2,0.1,0.4s-0.1,0.3-0.3,0.5c-0.2,0.2-0.4,0.3-0.6,0.3 s-0.4,0-0.5-0.1l-3.3-2.9c-0.4,0.1-0.7,0.2-1.1,0.2c-0.4,0.1-0.7,0.1-1,0.2c-0.3,0.3-0.7,0.7-1,1c-0.1,0.1-0.3,0.3-0.4,0.4 c-0.1,0.2-0.3,0.3-0.4,0.5c-0.1,0.1-0.3,0.3-0.4,0.4c-0.1,0.1-0.2,0.3-0.3,0.4c-0.3,0.3-0.5,0.6-0.6,0.9 c-0.1,0.3-0.2,0.5-0.2,0.7s0,0.4,0.1,0.6c0.1,0.2,0.3,0.4,0.4,0.5s0.3,0.2,0.5,0.3s0.5,0.2,0.8,0.3s0.6,0.2,1,0.2 c0.4,0.1,0.7,0.1,1.1,0.2c0.4,0,0.7,0.1,1.1,0.1s0.7,0,1.1-0.1L435,719z M441.7,705.8c0.1-0.1,0.1-0.1,0.2-0.2 c0.1-0.1,0.1-0.2,0.1-0.3s0-0.2,0-0.3s-0.1-0.2-0.2-0.3s-0.4-0.1-0.8,0s-0.8,0.3-1.3,0.6s-1,0.6-1.6,1c-0.5,0.4-1.1,0.8-1.6,1.1 c0.1,0.1,0.2,0.2,0.2,0.3c0.1,0.1,0.2,0.2,0.2,0.3c0.4-0.1,0.9-0.3,1.4-0.5s0.9-0.4,1.4-0.6c0.4-0.2,0.8-0.4,1.2-0.6 C441.3,706.2,441.5,706,441.7,705.8z" class="st24"/><linearGradient id="SVGID_9_" x1="-182.974" x2="-16.82" y1="1715.447" y2="1619.518" gradientTransform="matrix(0.7554 0.6553 0.6553 -0.7554 -576.0345 2048.7961)" gradientUnits="userSpaceOnUse"><stop style="stop-color:#a8aaaa" id="stop363" offset="0"/><stop style="stop-color:#a1a3a3" id="stop365" offset=".067"/><stop style="stop-color:#a8aaaa" id="stop367" offset=".088"/><stop style="stop-color:#bcbdbd" id="stop369" offset=".118"/><stop style="stop-color:#dcdcdc" id="stop371" offset=".153"/><stop style="stop-color:#f4f4f4" id="stop373" offset=".177"/><stop style="stop-color:#eff0f0" id="stop375" offset=".178"/><stop style="stop-color:#d7d7d7" id="stop377" offset=".191"/><stop style="stop-color:#c3c4c4" id="stop379" offset=".204"/><stop style="stop-color:#b5b6b6" id="stop381" offset=".22"/><stop style="stop-color:#adaeae" id="stop383" offset=".24"/><stop style="stop-color:#abacac" id="stop385" offset=".276"/><stop style="stop-color:#9a9b9b" id="stop387" offset=".296"/><stop style="stop-color:#8f9090" id="stop389" offset=".32"/><stop style="stop-color:#888989" id="stop391" offset=".355"/><stop style="stop-color:#868787" id="stop393" offset=".45"/><stop style="stop-color:#8e8f8f" id="stop395" offset=".488"/><stop style="stop-color:#9d9f9f" id="stop397" offset=".592"/><stop style="stop-color:#a6a8a8" id="stop399" offset=".711"/><stop style="stop-color:#a9abab" id="stop401" offset=".873"/><stop style="stop-color:#dcdcdc" id="stop403" offset=".963"/></linearGradient><path id="path406" d="M436,723.3c-0.5-0.5-0.9-1-1.2-1.5c-0.2-0.5-0.3-1.1-0.3-1.7c0-0.6,0.1-1.1,0.4-1.7c0.2-0.5,0.6-1.1,1-1.5 c0.3-0.3,0.6-0.6,1-0.9c0.4-0.3,0.8-0.6,1.2-0.8c0.4-0.2,0.9-0.4,1.3-0.6c0.5-0.1,0.9-0.2,1.4-0.2s0.9,0.1,1.4,0.2 c0.4,0.1,0.9,0.4,1.3,0.7c0.3,0.3,0.6,0.6,0.8,0.9c0.2,0.3,0.3,0.7,0.3,1.1c0,0.4,0,0.7-0.1,1.1c-0.1,0.4-0.3,0.7-0.6,1 c-0.3,0.4-0.7,0.6-1.2,0.8s-1,0.3-1.6,0.4c-0.6,0-1.2,0-1.8-0.1c-0.6-0.1-1.3-0.3-1.9-0.6c0,0.2-0.1,0.4-0.1,0.6 c0,0.2,0,0.3,0,0.5c0,0.1,0.1,0.2,0.2,0.4c0.1,0.1,0.2,0.2,0.3,0.3c0.3,0.3,0.8,0.5,1.3,0.7s1,0.3,1.6,0.4 c0.5,0.1,1.1,0.2,1.6,0.2s1,0,1.4,0l0.1,2.1c-1,0.1-1.9,0.1-2.8,0c-0.4,0-0.8-0.1-1.2-0.2c-0.4-0.1-0.9-0.2-1.3-0.3 s-0.8-0.3-1.2-0.5C436.7,723.8,436.3,723.5,436,723.3z M438.3,718.2c0.2,0.2,0.5,0.3,0.8,0.4c0.3,0.1,0.7,0.2,1,0.2 c0.4,0,0.7,0,1-0.1s0.5-0.2,0.7-0.4c0.2-0.3,0.4-0.5,0.4-0.8s0-0.4-0.1-0.5c-0.2-0.2-0.5-0.3-0.7-0.4c-0.3-0.1-0.5-0.1-0.7,0 c-0.2,0-0.5,0.1-0.7,0.3c-0.2,0.1-0.4,0.3-0.7,0.4c-0.2,0.2-0.4,0.3-0.5,0.5C438.6,718,438.4,718.1,438.3,718.2z" class="st25"/><linearGradient id="SVGID_10_" x1="-165.105" x2="-31.885" y1="1710.319" y2="1633.405" gradientTransform="matrix(0.7554 0.6553 0.6553 -0.7554 -576.0345 2048.7961)" gradientUnits="userSpaceOnUse"><stop style="stop-color:#a8aaaa" id="stop408" offset="0"/><stop style="stop-color:#a1a3a3" id="stop410" offset=".067"/><stop style="stop-color:#a8aaaa" id="stop412" offset=".088"/><stop style="stop-color:#bcbdbd" id="stop414" offset=".118"/><stop style="stop-color:#dcdcdc" id="stop416" offset=".153"/><stop style="stop-color:#f4f4f4" id="stop418" offset=".177"/><stop style="stop-color:#eff0f0" id="stop420" offset=".178"/><stop style="stop-color:#d7d7d7" id="stop422" offset=".191"/><stop style="stop-color:#c3c4c4" id="stop424" offset=".204"/><stop style="stop-color:#b5b6b6" id="stop426" offset=".22"/><stop style="stop-color:#adaeae" id="stop428" offset=".24"/><stop style="stop-color:#abacac" id="stop430" offset=".276"/><stop style="stop-color:#9a9b9b" id="stop432" offset=".296"/><stop style="stop-color:#8f9090" id="stop434" offset=".32"/><stop style="stop-color:#888989" id="stop436" offset=".355"/><stop style="stop-color:#868787" id="stop438" offset=".45"/><stop style="stop-color:#8e8f8f" id="stop440" offset=".488"/><stop style="stop-color:#9d9f9f" id="stop442" offset=".592"/><stop style="stop-color:#a6a8a8" id="stop444" offset=".711"/><stop style="stop-color:#a9abab" id="stop446" offset=".873"/><stop style="stop-color:#dcdcdc" id="stop448" offset=".963"/></linearGradient><path id="path451" d="M441.4,724.8c0.2-0.3,0.5-0.5,0.8-0.8s0.7-0.6,1-1s0.8-0.7,1.2-1c0.4-0.3,0.8-0.6,1.2-0.9 c0.4-0.3,0.7-0.5,1.1-0.8c0.3-0.2,0.6-0.4,0.8-0.5c0.2-0.1,0.3-0.1,0.4-0.2c0.1,0,0.2,0,0.3,0c0.1,0,0.2,0,0.3,0.1 c0.1,0.1,0.2,0.2,0.3,0.3c0.1,0.1,0.3,0.2,0.3,0.3c0.1,0.1,0.1,0.2,0.1,0.3s-0.1,0.2-0.1,0.3c-0.1,0.1-0.2,0.3-0.4,0.4 c-0.2,0.2-0.4,0.5-0.7,0.8c-0.3,0.3-0.5,0.6-0.8,0.9l0.1,0.1c0.3-0.1,0.7-0.3,1.1-0.4c0.4-0.2,0.8-0.3,1.2-0.4 c0.4-0.1,0.8-0.1,1.2-0.1c0.4,0,0.7,0.2,1.1,0.5c0.1,0.1,0.2,0.2,0.3,0.3c0.1,0.1,0.1,0.3,0.1,0.4c0,0.1,0,0.3,0,0.4 c0,0.1-0.1,0.3-0.2,0.4c-0.1,0.1-0.2,0.2-0.4,0.4c-0.2,0.1-0.4,0.3-0.6,0.5s-0.4,0.3-0.6,0.5s-0.3,0.3-0.4,0.4 c-0.2,0.2-0.3,0.4-0.4,0.6c-0.1,0.2-0.1,0.3-0.1,0.5c0,0.1,0,0.3,0.1,0.4c0.1,0.1,0.1,0.2,0.2,0.3c0.3,0.2,0.6,0.4,0.9,0.5 c0.4,0.1,0.7,0.2,1.1,0.3s0.8,0.1,1.3,0.1l-1.9,1.9c-0.2,0-0.5-0.1-0.8-0.1s-0.6-0.1-0.9-0.2c-0.3-0.1-0.6-0.2-0.9-0.3 s-0.6-0.3-0.8-0.5c-0.4-0.4-0.7-0.8-0.8-1.2s-0.1-0.8,0-1.2s0.3-0.8,0.5-1.2s0.5-0.8,0.7-1.2l-0.1-0.1l-5.2,2.9 c-0.3,0.2-0.5,0.3-0.7,0.4c-0.2,0.1-0.4,0.1-0.5,0.2c-0.2,0-0.3,0-0.4,0s-0.2-0.1-0.3-0.2c-0.2-0.2-0.4-0.4-0.4-0.6 c-0.1-0.2,0-0.5,0-0.7c0.1-0.2,0.2-0.5,0.3-0.7C441,725.3,441.2,725,441.4,724.8z" class="st26"/></g></g></g><path id="sleeve_16_" d="M638.7,781c0,0-176.3-27.6-228.3-54.7c-66.8-6.7-22.1,54.2-22.1,54.2l149,51.6 c0,0,67.8,33.9,81.5,35.1C632.5,868.5,638.7,781,638.7,781z" class="st2"/><path id="hand_6_" d="M400.5,780.8c0,0-61.6,12.8-74.9,5.1s-35.9-20.1-35.3-35.1c0.7-15,21.6-58.5,40.6-58.3 s86,39.7,86,39.7L400.5,780.8z" class="st1"/><path id="handle_3_" d="M620.4,877.8c0,0,21.8-31.8,25.7-44c4-12.2,3.3-50.8,3.3-50.8l-66.8-15.2 c0,0-24.6,38.4-27.1,49.6c-2.6,11.2,0.6,43.4,0.6,43.4L620.4,877.8z" class="st4"/><path id="sleeve_12_" d="M274.6,739.1c0,0,181.5-16.3,234.3-41.9c66.9-4.8,20.6,54.8,20.6,54.8L379,799.4 c0,0-85.4,26.6-99.1,27.5C266.3,827.7,274.6,739.1,274.6,739.1z" class="st2"/><path id="hand_7_" d="M493.1,758.6c0,0,61.4,17.7,74.6,10.4s35.6-18.9,34.8-34.8c-0.7-15.8-21.9-63.2-40.7-64.3 c-18.8-1-84.7,38.3-84.7,38.3L493.1,758.6z" class="st1"/><path id="handle_1_" d="M246.1,746.8c0,0-1.7,38.5,1.4,51c3.1,12.5,24,44.9,24,44.9l64.8-22.3c0,0,0.6-45.5-3.1-56.4 s-23.4-36.6-23.4-36.6L246.1,746.8z" class="st4"/><g id="g475"><g id="g473"><path id="path465" d="M503.4,780.3c-0.7-0.5-1.2-0.9-1.6-1.3c-0.4-0.4-0.7-0.7-0.9-1c-0.2-0.3-0.3-0.6-0.4-0.9c0-0.3,0-0.6,0.1-1 c0.1-0.3,0.3-0.6,0.5-0.7c0.2-0.2,0.5-0.3,0.7-0.3c0.3-0.1,0.6-0.1,0.9-0.1s0.7,0,1.1-0.1c0,0,0.1,0,0.4,0c0.2,0,0.5-0.1,0.9-0.1 s0.8-0.1,1.2-0.1c0.5,0,0.9-0.1,1.4-0.1c0.4,0,0.9-0.1,1.2-0.1c0.4,0,0.7,0,0.9,0c0.1,0,0.3,0,0.4,0.1c0.2,0,0.3,0.1,0.4,0.2 c0.1,0.1,0.1,0.2,0.2,0.3c0,0.1,0.1,0.3,0.1,0.4c0,0.1,0,0.3,0,0.4c0,0.1,0,0.2,0,0.3s0,0.1,0,0.1c-0.1,0.2-0.2,0.4-0.3,0.5 c-0.2,0.1-0.3,0.1-0.6,0.1l-7.6,0.1l5,3.8c0.1,0.1,0.2,0.2,0.3,0.3c0.1,0.1,0.2,0.3,0.3,0.4c0.1,0.2,0.1,0.3,0.2,0.5 c0,0.2,0,0.4,0,0.6c-0.1,0.2-0.2,0.3-0.4,0.4c-0.2,0.1-0.4,0.1-0.7,0c-0.2-0.1-0.5-0.2-0.8-0.4s-0.6-0.4-0.8-0.6 c-0.3-0.2-0.6-0.5-0.9-0.7C504,780.8,503.7,780.5,503.4,780.3z" class="st7"/><path id="path467" d="M509.6,787.2c0.2-0.8,0.6-1.5,1.2-2.2c0.5-0.7,1.2-1.4,2-1.9c0.8-0.6,1.6-1,2.6-1.3c0.9-0.3,1.9-0.5,3-0.5 c-0.4-0.5-0.7-1.1-1-1.7c-0.3-0.6-0.5-1.1-0.7-1.7c-0.2-0.6-0.3-1.1-0.3-1.6s0-1,0.1-1.5c0.2-0.6,0.4-1.1,0.7-1.6s0.6-0.9,1-1.3 c0.4-0.4,0.8-0.7,1.2-1s0.9-0.5,1.3-0.6c0.4-0.1,0.9-0.2,1.3-0.3c0.4,0,0.8,0,1.2,0.1c0.5,0.2,1,0.4,1.4,0.9 c0.4,0.4,0.7,1,0.9,1.7s0.3,1.5,0.2,2.5s-0.3,2.1-0.7,3.4c-0.3,0.9-0.6,1.8-0.9,2.6c-0.3,0.8-0.7,1.6-1,2.3 c0.3,0.3,0.6,0.6,0.9,1c0.3,0.3,0.6,0.6,0.9,1c0.1,0.1,0.1,0.2,0.2,0.2c0.1,0.1,0.2,0.2,0.3,0.3s0.2,0.2,0.2,0.3 c0.1,0.1,0.1,0.2,0.1,0.2c0,0.1-0.1,0.1-0.1,0.1c-0.1,0-0.1,0.1-0.2,0.1c-0.1,0-0.2,0.1-0.2,0.1c-0.1,0-0.1,0-0.2,0 c-0.1,0-0.2,0-0.4,0c-0.3-0.1-0.7-0.3-1.1-0.5c-0.4-0.3-0.8-0.6-1.3-0.9c-0.6,1-1.2,1.9-1.8,2.6c-0.6,0.8-1.3,1.5-1.9,2 c-0.6,0.6-1.3,1.1-1.9,1.4c-0.6,0.4-1.2,0.7-1.8,0.9s-1.1,0.3-1.7,0.3c-0.5,0-1,0-1.4-0.2c-0.5-0.1-0.8-0.4-1.2-0.7 c-0.3-0.3-0.6-0.7-0.8-1.1c-0.2-0.5-0.3-1-0.3-1.6C509.3,788.6,509.4,787.9,509.6,787.2z M511.7,788.4c-0.2,0.6-0.2,1.1-0.1,1.4 c0.1,0.4,0.4,0.6,0.8,0.7c0.4,0.1,0.9,0.1,1.4-0.1c0.6-0.2,1.2-0.6,1.9-1.1c0.7-0.6,1.4-1.3,2.2-2.2s1.5-2.1,2.3-3.5l-0.3-0.3 c-0.6-0.1-1.2,0-1.9,0.1c-0.6,0.1-1.2,0.3-1.8,0.6s-1.1,0.6-1.6,0.9c-0.5,0.4-1,0.7-1.4,1.1c-0.4,0.4-0.8,0.8-1,1.2 C512,787.7,511.8,788.1,511.7,788.4z M518.8,774.9c-0.1,0.5-0.2,0.9-0.1,1.5c0.1,0.5,0.2,1.1,0.4,1.6c0.2,0.6,0.5,1.1,0.9,1.7 c0.4,0.6,0.8,1.2,1.3,1.8c0.3-0.8,0.7-1.6,1-2.5s0.6-1.8,0.9-2.8c0.2-0.7,0.3-1.3,0.4-1.8c0.1-0.5,0.1-0.9,0-1.3 c-0.1-0.3-0.2-0.6-0.3-0.8c-0.2-0.2-0.3-0.3-0.6-0.4c-0.2-0.1-0.4-0.1-0.7,0c-0.3,0-0.5,0.1-0.8,0.2c-0.3,0.1-0.5,0.3-0.8,0.5 s-0.5,0.4-0.7,0.6c-0.2,0.2-0.4,0.5-0.6,0.7C519,774.3,518.9,774.6,518.8,774.9z" class="st7"/><path id="path469" d="M539.7,786.8c-0.4,0.6-0.8,1.3-1.1,1.8c-0.3,0.6-0.5,1.1-0.7,1.5c-0.1,0.4-0.1,0.7,0,1s0.3,0.5,0.7,0.6 c0.1,0,0.3,0.1,0.6,0c0.2,0,0.5-0.1,0.8-0.2c0.3-0.1,0.7-0.2,1.1-0.4c0.4-0.2,0.9-0.4,1.4-0.7c0,0,0,0.1,0,0.3c0,0.1,0,0.3,0,0.6 c0,0.2,0,0.6,0.1,1c-0.6,0.3-1.1,0.6-1.7,0.8c-0.5,0.2-1.1,0.4-1.5,0.5c-0.5,0.1-0.9,0.2-1.3,0.2c-0.4,0-0.8,0-1.1-0.1 c-0.4-0.1-0.7-0.3-0.9-0.5c-0.3-0.2-0.5-0.5-0.6-0.8s-0.2-0.7-0.3-1.1c0-0.4,0-0.9,0.2-1.4c0.1-0.2,0.1-0.4,0.2-0.6 c0.1-0.2,0.2-0.5,0.4-0.8s0.4-0.6,0.6-1c0.2-0.4,0.4-0.7,0.7-1.1c-0.8-0.2-1.6-0.3-2.3-0.4c-0.7-0.1-1.5-0.3-2.2-0.4 c-0.3,0.4-0.6,0.9-0.9,1.3c-0.3,0.4-0.6,0.8-0.9,1.2c-0.3,0.4-0.5,0.7-0.7,1s-0.4,0.6-0.6,0.8c-0.5,0.5-0.9,0.9-1.2,1 c-0.3,0.2-0.6,0.2-0.8,0.2c-0.1,0-0.3-0.1-0.4-0.2c-0.1-0.1-0.2-0.2-0.3-0.3s-0.1-0.2-0.2-0.4c0-0.1,0-0.3,0-0.4 c0-0.1,0.1-0.2,0.1-0.3c0.5-0.8,1-1.6,1.6-2.3c0.5-0.7,1.1-1.4,1.6-2.1c-0.3-0.1-0.6-0.2-0.9-0.4c-0.3-0.1-0.5-0.3-0.7-0.5 s-0.4-0.4-0.5-0.7s-0.2-0.6-0.2-1c0-0.1,0-0.2,0-0.3s0-0.2,0.1-0.2c0.1-0.3,0.2-0.4,0.4-0.3c0.1,0,0.2,0.1,0.3,0.3 s0.2,0.4,0.3,0.7c0.3,0.1,0.5,0.1,0.8,0.2c0.3,0.1,0.6,0.2,0.9,0.3l0.8,0.3c0.4-0.5,0.7-0.9,1.1-1.4c0.3-0.4,0.7-0.9,1-1.3 c0.2-0.3,0.4-0.6,0.5-0.8c0.2-0.3,0.3-0.6,0.4-0.8c0.1-0.2,0.1-0.4,0.1-0.6c0-0.2,0-0.4-0.1-0.5c-0.1-0.2-0.1-0.3-0.3-0.4 c-0.1-0.1-0.3-0.2-0.5-0.3s-0.4-0.1-0.6-0.1c-0.2,0-0.5,0-0.8,0.1c-0.3,0-0.7,0.1-1.1,0.2c-0.4,0.1-0.8,0.3-1.3,0.5 c-0.2,0.1-0.3,0.1-0.4,0.1c-0.1,0-0.2,0-0.3,0c0,0-0.1-0.1,0-0.3c0-0.2,0.1-0.4,0.1-0.6c0.1-0.3,0.2-0.6,0.5-0.8 c0.2-0.2,0.5-0.4,0.8-0.6c0.3-0.2,0.6-0.3,1-0.4c0.4-0.1,0.7-0.2,1.1-0.2c0.4,0,0.7,0,1.1,0c0.3,0,0.7,0.1,0.9,0.2 c0.4,0.1,0.8,0.3,1.1,0.5s0.6,0.5,0.8,0.8s0.3,0.7,0.4,1.1c0,0.4,0,0.9-0.2,1.5c-0.1,0.3-0.2,0.6-0.4,0.9 c-0.2,0.4-0.4,0.7-0.6,1.2c-0.2,0.4-0.5,0.9-0.8,1.3c-0.3,0.5-0.6,0.9-0.9,1.4c0.6,0.1,1.3,0.3,2,0.5c0.8,0.2,1.5,0.4,2.3,0.6 c0.6-0.9,1.2-1.8,1.9-2.7s1.3-1.8,2-2.7c0.2-0.3,0.5-0.5,0.8-0.6s0.6-0.2,0.9-0.1c0.1,0,0.2,0.1,0.3,0.2c0.1,0.1,0.2,0.2,0.2,0.3 c0.1,0.1,0.1,0.2,0.1,0.3s0,0.3,0,0.4c0,0.1-0.1,0.3-0.2,0.5c-0.1,0.2-0.2,0.3-0.3,0.5c-0.2,0.3-0.5,0.7-0.8,1 c-0.3,0.4-0.6,0.7-0.8,1.1c-0.3,0.4-0.6,0.8-0.9,1.2c-0.3,0.4-0.6,0.8-0.8,1.2c0.4,0.1,0.7,0.2,1,0.2c0.3,0.1,0.5,0.1,0.6,0.1 s0.1,0,0.2,0c0.1,0,0.1,0,0.2,0c0.2,0.1,0.3,0.1,0.4,0.2c0.1,0.1,0.2,0.1,0.2,0.2c0,0.1,0.1,0.2,0.1,0.3s0,0.2-0.1,0.3 c0,0.1-0.1,0.2-0.2,0.3c-0.1,0.1-0.2,0.1-0.3,0.1s-0.2,0-0.3,0s-0.2,0-0.3,0c-0.2,0-0.3-0.1-0.4-0.1s-0.1,0-0.2,0c0,0,0,0-0.1,0 c0,0,0,0-0.1,0c0,0-0.1,0-0.2,0c-0.1,0-0.2,0-0.4-0.1c-0.2,0-0.4-0.1-0.6-0.1C540.1,786.9,539.9,786.9,539.7,786.8z" class="st7"/><path id="path471" d="M550.5,794.5c-0.4,0-0.8,0-1.1,0.1c-0.4,0-0.8,0.1-1.1,0.1c-0.4,0-0.7,0-1,0s-0.6,0-0.9-0.1 c-0.3-0.1-0.5-0.2-0.6-0.4s-0.2-0.4-0.1-0.5c0.1-0.2,0.1-0.3,0.2-0.5c0.1-0.1,0.2-0.3,0.3-0.3c0.1-0.1,0.2-0.2,0.3-0.2 c0.1-0.1,0.2-0.1,0.3-0.1l6.6-0.4l-5.7-3.7c-0.2-0.1-0.3-0.3-0.4-0.4c-0.1-0.1-0.1-0.3,0-0.5c0,0,0,0,0-0.1s0.1-0.2,0.1-0.2 c0.1-0.1,0.1-0.2,0.2-0.3c0.1-0.1,0.2-0.2,0.3-0.3s0.2-0.1,0.3-0.2c0.1,0,0.3,0,0.4,0c0.1,0,0.2,0.1,0.4,0.2 c0.2,0.1,0.4,0.3,0.7,0.5s0.6,0.4,0.9,0.7c0.3,0.2,0.6,0.5,0.9,0.7c0.3,0.2,0.6,0.5,0.8,0.7c0.3,0.2,0.5,0.4,0.6,0.5 s0.2,0.2,0.3,0.2c0.3,0.2,0.6,0.5,0.8,0.7c0.3,0.2,0.5,0.4,0.7,0.6c0.2,0.2,0.3,0.4,0.4,0.7c0.1,0.2,0.1,0.5,0,0.8 s-0.3,0.6-0.4,0.9c-0.2,0.2-0.5,0.4-0.8,0.6c-0.3,0.1-0.8,0.3-1.3,0.3C552,794.4,551.4,794.5,550.5,794.5z" class="st7"/></g></g><ellipse style="fill:#fff;fill-opacity:1;stroke-width:1.16329741" id="path165" cx="365.007" cy="268.598" rx="23.678" ry="23.107"/><path id="pupill_7_" d="m 373.36754,271.42775 c -1.1,4.10001 -5.6,6.4 -10.1,5.2 -3.3,-0.89999 -5.6,-3.5 -6.1,-6.39999 0.4,0.39999 0.9,0.69999 1.5,0.89999 1.8,0.5 3.7,-0.5 4.2,-2.1 0.5,-1.69999 -0.6,-3.5 -2.5,-4 -0.7,-0.19999 -1.5,-0.19999 -2.2,0.1 1.8,-2.7 5.5,-4.1 9.1,-3.1 4.5,1 7.2,5.30001 6.1,9.4 z" class="st7" style="fill:#333"/><ellipse id="ellipse4708" cx="465.423" cy="269.169" rx="23.678" ry="23.107" style="fill:#fff;fill-opacity:1;stroke-width:1.16329741"/><path id="path4706" d="m 473.78386,271.42775 c -1.1,4.1 -5.6,6.4 -10.1,5.2 -3.3,-0.9 -5.6,-3.5 -6.1,-6.4 0.4,0.4 0.9,0.7 1.5,0.9 1.8,0.5 3.7,-0.5 4.2,-2.1 0.5,-1.7 -0.6,-3.5 -2.5,-4 -0.7,-0.2 -1.5,-0.2 -2.2,0.1 1.8,-2.7 5.5,-4.1 9.1,-3.1 4.5,1 7.2,5.3 6.1,9.4 z" class="st7" style="fill:#333"/></g></svg>